<svg width="120" height="121" viewBox="0 0 120 121" fill="none" xmlns="http://www.w3.org/2000/svg"><path d="M15.451 79.845c.102.232.218.446.343.66.058.124.138.254.21.37.115.231.24.454.36.677l.7 1.176c.13.218.254.432.401.646.245.419.535.829.789 1.248.116.174.223.347.352.521.49.762.936 1.395 1.412 2.01.339.459.678.909 1.043 1.359.12.17.254.338.379.508l.985 1.194c.12.138.24.299.37.441.436.526.9 1.034 1.363 1.55 0 .01.013.019.022.032a13.523 13.523 0 0 0 1.872 1.934l.018.018c.356.365.712.726 1.091 1.083l.45.432c.495.463.99.922 1.51 1.368.01 0 .014.009.023.013l.254.223c.455.396.914.788 1.381 1.154l.558.468c.378.303.77.588 1.158.886l.606.464c.414.312.856.615 1.279.918.156.111.312.223.472.325l.13.103 1.252.82.534.356c.655.419 1.306.811 1.956 1.203.188.094.375.196.549.303.48.276.98.557 1.465.811.268.152.544.281.82.419.335.187.682.37 1.039.557.098.031.178.062.258.107l.018-.018c.147.067.285.138.428.21.534.267 1.091.521 1.67.77.108.045.224.09.34.152a49.72 49.72 0 0 0 1.947.806c.151.045.311.121.467.179.602.227 1.221.459 1.836.677l.223.08c.682.232 1.355.455 2.05.664.16.045.325.103.494.147.709.214 1.395.468 2.112.602 45.776 8.301 59.077-27.386 59.077-27.386-11.175 14.481-31.008 18.3-49.79 14.05-.695-.161-1.39-.384-2.095-.59a52.436 52.436 0 0 1-2.954-.93l.423.129-.276-.107c-.606-.205-1.19-.432-1.782-.66a6.816 6.816 0 0 0-.441-.169l-.05-.013a57.948 57.948 0 0 1-1.924-.811c-.139-.045-.254-.107-.392-.16a60.718 60.718 0 0 1-2.228-1.026l.614.272a6.593 6.593 0 0 1-.472-.231c-.419-.197-.837-.42-1.247-.629a16.82 16.82 0 0 1-.923-.472l.09.044c-.504-.267-1.008-.556-1.516-.828-.151-.107-.325-.196-.499-.294-.755-.44-1.5-.894-2.237-1.364l.281.17a9.085 9.085 0 0 1-.552-.37l.026.017a26.942 26.942 0 0 1-1.408-.927c-.151-.098-.29-.204-.446-.311a38.37 38.37 0 0 1-1.416-1.016l.107.075c-.188-.151-.388-.294-.589-.44-.392-.308-.788-.602-1.18-.923l-.526-.419c-.56-.446-1.11-.905-1.649-1.377l-.005-.004-1.546-1.404-.445-.419c-.366-.37-.74-.722-1.114-1.087l-.433-.446a40.186 40.186 0 0 1-1.35-1.403l-.026-.031-.076-.063a79.659 79.659 0 0 1-1.395-1.573c-.12-.138-.232-.285-.356-.432l-1.012-1.225a61.079 61.079 0 0 1-1.337-1.743l-.178-.25c-10.418-14.151-14.188-33.682-5.85-49.705l-7.362 9.308C6.512 46.84 7.684 64.45 14.925 78.83c.165.352.348.682.526 1.016z" fill="#1266A9"/><path d="M47.342 60.337l-.049-.071-.04-.054.089.125z" fill="#000"/><path d="M52.324 66.183l.4.401c.509.49 1.03.967 1.56 1.444l.067.058c.535.472 1.136.967 1.756 1.448l.093.071c.152.103.281.223.428.325.624.482 1.252.94 1.907 1.4l.067.04c.277.2.57.383.883.58.124.08.267.186.4.266.473.303.936.584 1.413.874.076.031.143.071.214.102.401.245.838.482 1.257.695.147.09.29.156.44.241.3.147.593.303.879.454l.142.063c.602.294 1.217.57 1.818.842.152.058.28.107.41.17.495.213.998.418 1.493.605.223.076.432.165.642.232.454.17.93.325 1.38.481l.625.2c.65.201 1.31.464 2 .571 35.349 5.82 43.53-21.26 43.53-21.26-7.365 10.548-21.62 15.575-36.81 11.649a36.654 36.654 0 0 1-2.255-.646l.254.07c-.214-.057-.4-.124-.606-.186-.463-.16-.94-.317-1.39-.481l-.642-.241c-.499-.2-1.007-.388-1.493-.602-.151-.067-.29-.111-.405-.178-.624-.28-1.252-.557-1.863-.85L70 64.542l-.53-.267c-.41-.214-.788-.437-1.18-.664a2.5 2.5 0 0 1-.29-.16l.013.004c-.472-.294-.962-.58-1.417-.878-.151-.085-.29-.187-.432-.276l-.927-.602c-.641-.445-1.27-.922-1.907-1.385-.143-.13-.28-.237-.419-.352-6.68-5.227-11.946-12.37-14.446-20.458-2.634-8.408-2.054-17.837 2.495-25.488l-5.592 7.878c-6.867 9.808-6.479 22.917-1.132 33.29a40.028 40.028 0 0 0 3.057 5.076c1.016 1.453 2.139 3.155 3.493 4.322.482.549.999 1.07 1.538 1.6z" fill="#1266A9"/><path d="M20.04 87.18l-.017-.027-.031-.04.049.067zm18.529-3.316l.044.031.009.014-.053-.045z" fill="#000"/><path d="M70.081 13.367c-4.05 5.913-4.438 13.256-1.649 19.775 2.964 6.925 9.02 12.361 16.077 14.936.29.112.57.205.87.313l.391.12c.41.129.825.28 1.248.374 19.522 3.748 24.806-9.972 26.228-11.99-4.648 6.638-12.441 8.234-22.004 5.921a21.187 21.187 0 0 1-2.45-.757l.147.049a27.615 27.615 0 0 1-2.923-1.203l.169.075c-1.827-.891-3.395-1.853-4.853-2.958-8.546-6.462-13.83-18.764-8.252-28.786l-2.999 4.13z" fill="#1266A9"/></svg>