<svg width="85" height="84" viewBox="0 0 85 84" fill="none" xmlns="http://www.w3.org/2000/svg"><path d="M38.98.896c2.132-1.192 4.908-1.197 7.038 0 10.712 5.916 21.429 11.822 32.14 17.742 2.015 1.109 3.362 3.3 3.342 5.568v35.592c.015 2.363-1.466 4.606-3.591 5.69C67.23 71.37 56.559 77.26 45.882 83.145c-2.175 1.215-5.007 1.121-7.114-.194-3.201-1.813-6.408-3.618-9.61-5.43-.654-.38-1.391-.684-1.853-1.304.408-.538 1.138-.605 1.732-.84 1.336-.415 2.563-1.081 3.79-1.728.311-.208.69-.128.988.057 2.737 1.534 5.45 3.113 8.197 4.632.586.33 1.18-.108 1.68-.381 10.478-5.788 20.97-11.553 31.446-17.342.388-.183.602-.586.571-1.001.007-11.741.002-23.484.004-35.225.044-.471-.235-.905-.671-1.098C64.4 17.435 53.766 11.57 43.127 5.711a1.127 1.127 0 0 0-1.254 0C31.234 11.57 20.601 17.44 9.963 23.295c-.436.193-.727.62-.676 1.093.002 11.74 0 23.484 0 35.227a.978.978 0 0 0 .13.582c.104.177.26.319.449.406 2.839 1.573 5.682 3.135 8.523 4.703 1.6.842 3.565 1.342 5.328.697 1.556-.545 2.647-2.097 2.617-3.712.015-11.672-.007-23.346.012-35.017-.04-.518.464-.946.98-.897 1.363-.01 2.73-.018 4.093.003.57-.012.962.546.891 1.068-.005 11.746.015 23.493-.009 35.239.004 3.13-1.312 6.537-4.275 8.069-3.65 1.848-8.163 1.456-11.769-.316-3.122-1.523-6.1-3.32-9.167-4.952-2.131-1.078-3.605-3.33-3.59-5.69V24.205c-.022-2.315 1.38-4.546 3.456-5.639C17.633 12.68 28.306 6.787 38.981.897z" fill="#8CC84B"/><path d="M47.96 26.112c4.496-.283 9.31-.168 13.355 2.002 3.133 1.662 4.87 5.151 4.925 8.56-.088.46-.578.713-1.027.682-1.304-.002-2.609.017-3.913-.009-.554.021-.875-.479-.945-.958-.375-1.63-1.283-3.246-2.85-4.033-2.406-1.18-5.196-1.12-7.82-1.096-1.915.1-3.974.262-5.597 1.366-1.245.835-1.624 2.522-1.18 3.88.42.976 1.57 1.29 2.51 1.58 5.419 1.389 11.16 1.25 16.476 3.077 2.2.745 4.353 2.193 5.106 4.45.985 3.024.553 6.639-1.644 9.067-1.781 1.998-4.376 3.085-6.964 3.676-3.443.752-7.016.77-10.513.437-3.287-.367-6.709-1.213-9.247-3.407-2.17-1.846-3.23-4.722-3.125-7.498.025-.468.502-.795.96-.757 1.314-.01 2.628-.014 3.941.002.525-.037.914.407.94.892.243 1.554.84 3.185 2.223 4.106 2.67 1.687 6.02 1.572 9.077 1.619 2.533-.11 5.376-.144 7.443-1.783 1.09-.935 1.414-2.5 1.119-3.846-.32-1.137-1.533-1.666-2.575-2.012-5.35-1.658-11.155-1.056-16.453-2.93-2.15-.745-4.23-2.152-5.056-4.316-1.153-3.063-.625-6.851 1.803-9.197 2.366-2.334 5.782-3.232 9.03-3.554z" fill="#8CC84B"/></svg>