<svg width="85" height="84" viewBox="0 0 85 84" fill="none" xmlns="http://www.w3.org/2000/svg"><g clip-path="url(#a)"><path d="M42.5 49.432a7.501 7.501 0 1 0 0-15.002 7.501 7.501 0 0 0 0 15.002z" fill="#00D8FF"/><path fill-rule="evenodd" clip-rule="evenodd" d="M42.5 26.68c10.072 0 19.427 1.445 26.481 3.873 8.5 2.926 13.726 7.362 13.726 11.378 0 4.185-5.539 8.897-14.666 11.92-6.9 2.287-15.98 3.48-25.54 3.48-9.802 0-19.084-1.12-26.062-3.505C7.61 50.81 2.293 46.037 2.293 41.931c0-3.984 4.99-8.385 13.37-11.306 7.08-2.469 16.667-3.945 26.836-3.945h.001z" stroke="#00D8FF" stroke-width="2.734"/><path fill-rule="evenodd" clip-rule="evenodd" d="M29.224 34.35c5.032-8.725 10.957-16.108 16.585-21.005 6.78-5.901 13.233-8.212 16.712-6.206 3.626 2.09 4.94 9.242 3 18.66-1.465 7.12-4.968 15.581-9.744 23.863-4.897 8.49-10.504 15.971-16.055 20.824-7.025 6.14-13.816 8.362-17.372 6.311-3.451-1.988-4.77-8.51-3.115-17.23 1.398-7.366 4.909-16.408 9.988-25.218h.001z" stroke="#00D8FF" stroke-width="2.734"/><path fill-rule="evenodd" clip-rule="evenodd" d="M29.236 49.684c-5.045-8.714-8.48-17.537-9.914-24.858-1.726-8.822-.506-15.567 2.97-17.579 3.622-2.097 10.474.336 17.664 6.72 5.436 4.826 11.018 12.086 15.808 20.36 4.91 8.483 8.591 17.077 10.023 24.31 1.812 9.152.345 16.145-3.208 18.202-3.447 1.996-9.756-.117-16.483-5.906-5.684-4.89-11.764-12.448-16.86-21.25v.001z" stroke="#00D8FF" stroke-width="2.734"/></g><defs><clipPath id="a"><path fill="#fff" transform="translate(.5)" d="M0 0h84v84H0z"/></clipPath></defs></svg>